<svg width="59" height="89" viewBox="0 0 59 89" fill="none" xmlns="http://www.w3.org/2000/svg">
<path d="M15.2115 88.9903C23.25 88.9903 29.7701 82.3505 29.7701 74.1646V59.3389H15.2115C7.17296 59.3389 0.652832 65.9786 0.652832 74.1646C0.652832 82.3505 7.17296 88.9903 15.2115 88.9903Z" fill="#0ACF83"/>
<path d="M0.652832 44.4956C0.652832 36.3097 7.17296 29.6699 15.2115 29.6699H29.7701V59.3395H15.2115C7.17296 59.3213 0.652832 52.6816 0.652832 44.4956Z" fill="#A259FF"/>
<path d="M0.652832 14.8257C0.652832 6.63973 7.17296 0 15.2115 0H29.7701V29.6696H15.2115C7.17296 29.6696 0.652832 23.0117 0.652832 14.8257Z" fill="#F24E1E"/>
<path d="M29.7881 0H44.3467C52.3852 0 58.9054 6.63973 58.9054 14.8257C58.9054 23.0117 52.3852 29.6514 44.3467 29.6514H29.7881V0Z" fill="#FF7262"/>
<path d="M58.9054 44.4956C58.9054 52.6816 52.3852 59.3213 44.3467 59.3213C36.3082 59.3213 29.7881 52.6816 29.7881 44.4956C29.7881 36.3097 36.3082 29.6699 44.3467 29.6699C52.3852 29.6699 58.9054 36.3097 58.9054 44.4956Z" fill="#1ABCFE"/>
</svg>
