<svg width="168" height="27" viewBox="0 0 168 27" fill="none" xmlns="http://www.w3.org/2000/svg">
<path d="M12.7933 3.85958C13.0931 2.9393 14.3951 2.9393 14.6949 3.85958L16.446 9.23398C16.5801 9.64561 16.9639 9.92418 17.3968 9.92418H23.0576C24.0269 9.92418 24.4293 11.1652 23.6443 11.734L19.0694 15.0486C18.7179 15.3033 18.5709 15.7555 18.7053 16.1682L20.4539 21.5349C20.7539 22.4557 19.7006 23.2227 18.9164 22.6544L14.3308 19.3321C13.9808 19.0784 13.5074 19.0784 13.1574 19.3321L8.57183 22.6544C7.78757 23.2227 6.73428 22.4557 7.0343 21.5348L8.78288 16.1682C8.91733 15.7555 8.77025 15.3033 8.41879 15.0486L3.84392 11.734C3.05891 11.1652 3.46124 9.92418 4.43064 9.92418H10.0914C10.5243 9.92418 10.9081 9.64561 11.0422 9.23398L12.7933 3.85958Z" fill="#070707"/>
<path d="M47.8902 3.85958C48.1901 2.9393 49.492 2.9393 49.7918 3.85958L51.5429 9.23398C51.677 9.64561 52.0608 9.92418 52.4937 9.92418H58.1545C59.1239 9.92418 59.5262 11.1652 58.7412 11.734L54.1663 15.0486C53.8149 15.3033 53.6678 15.7555 53.8022 16.1682L55.5508 21.5349C55.8508 22.4557 54.7975 23.2227 54.0133 22.6544L49.4277 19.3321C49.0777 19.0784 48.6043 19.0784 48.2543 19.3321L43.6688 22.6544C42.8845 23.2227 41.8312 22.4557 42.1312 21.5348L43.8798 16.1682C44.0143 15.7555 43.8672 15.3033 43.5157 15.0486L38.9408 11.734C38.1558 11.1652 38.5582 9.92418 39.5276 9.92418H45.1883C45.6212 9.92418 46.005 9.64561 46.1391 9.23398L47.8902 3.85958Z" fill="#070707"/>
<path d="M82.9874 3.85958C83.2872 2.9393 84.5891 2.9393 84.889 3.85958L86.6401 9.23398C86.7742 9.64561 87.158 9.92418 87.5909 9.92418H93.2516C94.221 9.92418 94.6234 11.1652 93.8384 11.734L89.2635 15.0486C88.912 15.3033 88.7649 15.7555 88.8994 16.1682L90.648 21.5349C90.948 22.4557 89.8947 23.2227 89.1105 22.6544L84.5249 19.3321C84.1749 19.0784 83.7015 19.0784 83.3515 19.3321L78.7659 22.6544C77.9817 23.2227 76.9284 22.4557 77.2284 21.5348L78.977 16.1682C79.1114 15.7555 78.9643 15.3033 78.6129 15.0486L74.038 11.734C73.253 11.1652 73.6553 9.92418 74.6247 9.92418H80.2855C80.7184 9.92418 81.1022 9.64561 81.2363 9.23398L82.9874 3.85958Z" fill="#070707"/>
<path d="M153.182 3.85958C153.482 2.9393 154.783 2.9393 155.083 3.85958L156.834 9.23398C156.969 9.64561 157.352 9.92418 157.785 9.92418H163.446C164.415 9.92418 164.818 11.1652 164.033 11.734L159.458 15.0486C159.106 15.3033 158.959 15.7555 159.094 16.1682L160.842 21.5349C161.142 22.4557 160.089 23.2227 159.305 22.6544L154.719 19.3321C154.369 19.0784 153.896 19.0784 153.546 19.3321L148.96 22.6544C148.176 23.2227 147.123 22.4557 147.423 21.5348L149.171 16.1682C149.306 15.7555 149.159 15.3033 148.807 15.0486L144.232 11.734C143.447 11.1652 143.85 9.92418 144.819 9.92418H150.48C150.913 9.92418 151.297 9.64561 151.431 9.23398L153.182 3.85958Z" fill="#E5E5E5"/>
<path d="M118.085 3.91817C118.385 2.9979 119.687 2.9979 119.987 3.91817L121.738 9.29257C121.872 9.7042 122.256 9.98278 122.689 9.98278H128.35C129.319 9.98278 129.721 11.2238 128.936 11.7926L124.361 15.1072C124.01 15.3619 123.863 15.8141 123.997 16.2268L125.746 21.5934C126.046 22.5143 124.993 23.2812 124.208 22.713L119.623 19.3907C119.273 19.137 118.799 19.137 118.449 19.3907L113.864 22.713C113.08 23.2812 112.026 22.5143 112.326 21.5934L114.075 16.2268C114.209 15.8141 114.062 15.3619 113.711 15.1072L109.136 11.7926C108.351 11.2238 108.753 9.98278 109.723 9.98278H115.383C115.816 9.98278 116.2 9.7042 116.334 9.29257L118.085 3.91817Z" fill="#E5E5E5"/>
</svg>
