<svg xmlns="http://www.w3.org/2000/svg" version="1.1" xmlns:xlink="http://www.w3.org/1999/xlink" xmlns:svgjs="http://svgjs.com/svgjs" width="512" height="512" x="0" y="0" viewBox="0 0 32 32" style="enable-background:new 0 0 512 512" xml:space="preserve" class=""><g><g id="star"><path d="m29.911 13.75-6.229 6.072 1.471 8.576c.064.375-.09.754-.398.978-.174.127-.381.191-.588.191-.159 0-.319-.038-.465-.115l-7.702-4.049-7.701 4.048c-.336.178-.745.149-1.053-.076-.308-.224-.462-.603-.398-.978l1.471-8.576-6.23-6.071c-.272-.266-.371-.664-.253-1.025s.431-.626.808-.681l8.609-1.25 3.85-7.802c.337-.683 1.457-.683 1.794 0l3.85 7.802 8.609 1.25c.377.055.69.319.808.681s.019.758-.253 1.025z" fill="#000000" data-original="#000000" class=""></path></g></g></svg>