<svg width="167" height="27" viewBox="0 0 167 27" fill="none" xmlns="http://www.w3.org/2000/svg">
<path d="M12.2142 3.85958C12.514 2.9393 13.816 2.9393 14.1158 3.85958L15.8669 9.23398C16.001 9.64561 16.3848 9.92418 16.8177 9.92418H22.4785C23.4478 9.92418 23.8502 11.1652 23.0652 11.734L18.4903 15.0486C18.1388 15.3033 17.9918 15.7555 18.1262 16.1682L19.8748 21.5349C20.1748 22.4557 19.1215 23.2227 18.3373 22.6544L13.7517 19.3321C13.4017 19.0784 12.9283 19.0784 12.5783 19.3321L7.99273 22.6544C7.20847 23.2227 6.15518 22.4557 6.4552 21.5348L8.20377 16.1682C8.33823 15.7555 8.19115 15.3033 7.83969 15.0486L3.26482 11.734C2.47981 11.1652 2.88214 9.92418 3.85153 9.92418H9.51229C9.94522 9.92418 10.329 9.64561 10.4631 9.23398L12.2142 3.85958Z" fill="#070707"/>
<path d="M47.3116 3.85958C47.6114 2.9393 48.9134 2.9393 49.2132 3.85958L50.9643 9.23398C51.0984 9.64561 51.4822 9.92418 51.9151 9.92418H57.5759C58.5453 9.92418 58.9476 11.1652 58.1626 11.734L53.5877 15.0486C53.2362 15.3033 53.0892 15.7555 53.2236 16.1682L54.9722 21.5349C55.2722 22.4557 54.2189 23.2227 53.4347 22.6544L48.8491 19.3321C48.4991 19.0784 48.0257 19.0784 47.6757 19.3321L43.0901 22.6544C42.3059 23.2227 41.2526 22.4557 41.5526 21.5348L43.3012 16.1682C43.4356 15.7555 43.2886 15.3033 42.9371 15.0486L38.3622 11.734C37.5772 11.1652 37.9796 9.92418 38.9489 9.92418H44.6097C45.0426 9.92418 45.4264 9.64561 45.5605 9.23398L47.3116 3.85958Z" fill="#070707"/>
<path d="M82.4088 3.85958C82.7086 2.9393 84.0105 2.9393 84.3104 3.85958L86.0615 9.23398C86.1956 9.64561 86.5793 9.92418 87.0123 9.92418H92.673C93.6424 9.92418 94.0448 11.1652 93.2598 11.734L88.6849 15.0486C88.3334 15.3033 88.1863 15.7555 88.3208 16.1682L90.0694 21.5349C90.3694 22.4557 89.3161 23.2227 88.5318 22.6544L83.9463 19.3321C83.5963 19.0784 83.1229 19.0784 82.7729 19.3321L78.1873 22.6544C77.403 23.2227 76.3498 22.4557 76.6498 21.5348L78.3984 16.1682C78.5328 15.7555 78.3857 15.3033 78.0343 15.0486L73.4594 11.734C72.6744 11.1652 73.0767 9.92418 74.0461 9.92418H79.7069C80.1398 9.92418 80.5236 9.64561 80.6577 9.23398L82.4088 3.85958Z" fill="#070707"/>
<path d="M117.506 3.85958C117.806 2.9393 119.108 2.9393 119.408 3.85958L121.159 9.23398C121.293 9.64561 121.677 9.92418 122.109 9.92418H127.77C128.74 9.92418 129.142 11.1652 128.357 11.734L123.782 15.0486C123.431 15.3033 123.284 15.7555 123.418 16.1682L125.167 21.5349C125.467 22.4557 124.413 23.2227 123.629 22.6544L119.043 19.3321C118.693 19.0784 118.22 19.0784 117.87 19.3321L113.284 22.6544C112.5 23.2227 111.447 22.4557 111.747 21.5348L113.496 16.1682C113.63 15.7555 113.483 15.3033 113.131 15.0486L108.557 11.734C107.772 11.1652 108.174 9.92418 109.143 9.92418H114.804C115.237 9.92418 115.621 9.64561 115.755 9.23398L117.506 3.85958Z" fill="#070707"/>
<path d="M152.603 3.85958C152.903 2.9393 154.205 2.9393 154.504 3.85958L156.256 9.23398C156.39 9.64561 156.773 9.92418 157.206 9.92418H162.867C163.837 9.92418 164.239 11.1652 163.454 11.734L158.879 15.0486C158.528 15.3033 158.38 15.7555 158.515 16.1682L160.263 21.5349C160.563 22.4557 159.51 23.2227 158.726 22.6544L154.14 19.3321C153.79 19.0784 153.317 19.0784 152.967 19.3321L148.381 22.6544C147.597 23.2227 146.544 22.4557 146.844 21.5348L148.592 16.1682C148.727 15.7555 148.58 15.3033 148.228 15.0486L143.653 11.734C142.868 11.1652 143.271 9.92418 144.24 9.92418H149.901C150.334 9.92418 150.718 9.64561 150.852 9.23398L152.603 3.85958Z" fill="#E5E5E5"/>
</svg>
