<svg xmlns="http://www.w3.org/2000/svg" version="1.1" xmlns:xlink="http://www.w3.org/1999/xlink" xmlns:svgjs="http://svgjs.com/svgjs" width="512" height="512" x="0" y="0" viewBox="0 0 512 512" style="enable-background:new 0 0 512 512" xml:space="preserve" class=""><g>
<g>
	<g>
		<path d="M501.974,41.949c-8.237-7.547-19.944-10.062-30.555-6.565L21.231,183.785c-12.269,4.044-20.589,14.996-21.196,27.899
			c-0.606,12.904,6.649,24.589,18.483,29.768l111.335,48.712c0.543,2.52,32.504,150.756,33.591,155.795
			c1.395,6.472,4.68,12.237,11.639,14.01c7.039,1.793,12.012-2.054,17.264-5.986c2.923-2.188,82.62-61.865,82.62-61.865
			l96.589,79.039c5.626,4.606,12.502,7.008,19.513,7.008c3.338-0.001,6.708-0.545,9.986-1.657
			c10.166-3.447,17.702-11.744,20.159-22.193L511.18,71.813C513.737,60.938,510.211,49.496,501.974,41.949z M199.544,318.077
			c-0.055,0.13-0.109,0.277-0.16,0.453l-18.624,65.068l-20.784-96.395l142.917-79.405l-99.921,104.478
			C201.398,313.922,200.24,315.912,199.544,318.077z M205.455,406.602l8.459-29.555l8.091-28.269l28.991,23.724L205.455,406.602z
			 M481.908,64.927l-89.965,382.502c-0.045,0.19-0.105,0.452-0.545,0.601c-0.436,0.148-0.648-0.021-0.798-0.145l-105.691-86.488
			c-0.003-0.002-0.005-0.005-0.008-0.007l-48.969-40.072L393.255,156.82c5.138-5.373,5.578-13.694,1.035-19.579
			c-4.545-5.886-12.707-7.567-19.204-3.955L142.135,262.715L30.572,213.902c-0.34-0.148-0.527-0.231-0.5-0.806
			c0.027-0.573,0.221-0.638,0.573-0.754l450.188-148.4c0.218-0.071,0.464-0.153,0.826,0.177
			C482.021,64.451,481.961,64.703,481.908,64.927z" fill="#000000" data-original="#000000" class=""></path>
	</g>
</g>
<g>
</g>
<g>
</g>
<g>
</g>
<g>
</g>
<g>
</g>
<g>
</g>
<g>
</g>
<g>
</g>
<g>
</g>
<g>
</g>
<g>
</g>
<g>
</g>
<g>
</g>
<g>
</g>
<g>
</g>
</g></svg>